<svg width="27" height="34" viewBox="0 0 27 34" fill="none" xmlns="http://www.w3.org/2000/svg">
<path d="M21.033 6.24398C20.887 6.24398 20.74 6.17998 20.641 6.05498L17.577 2.20198L13.724 5.26598C13.51 5.43698 13.194 5.40398 13.021 5.18598C12.849 4.96998 12.885 4.65598 13.101 4.48398L17.345 1.10798C17.561 0.937976 17.876 0.969976 18.048 1.18798L21.424 5.43198C21.596 5.64798 21.56 5.96198 21.344 6.13398C21.253 6.20798 21.143 6.24398 21.033 6.24398Z" fill="black"/>
<path d="M1.49799 18.159C1.22199 18.159 0.997986 17.935 0.997986 17.659C0.997986 17.383 1.22199 17.159 1.49799 17.159C10.133 17.159 17.157 10.135 17.157 1.5C17.157 1.224 17.381 1 17.657 1C17.933 1 18.157 1.224 18.157 1.5C18.157 10.686 10.684 18.159 1.49799 18.159Z" fill="black"/>
<path d="M1.49799 34C1.22199 34 0.997986 33.776 0.997986 33.5V25.808C0.997986 25.532 1.22199 25.308 1.49799 25.308C1.77399 25.308 1.99799 25.532 1.99799 25.808V33.5C1.99799 33.776 1.77399 34 1.49799 34Z" fill="black"/>
<path d="M9.5 34C9.224 34 9 33.776 9 33.5V20.955C9 20.679 9.224 20.455 9.5 20.455C9.776 20.455 10 20.679 10 20.955V33.5C10 33.776 9.776 34 9.5 34Z" fill="black"/>
<path d="M17.501 34C17.225 34 17.001 33.776 17.001 33.5V17.468C17.001 17.192 17.225 16.968 17.501 16.968C17.777 16.968 18.001 17.192 18.001 17.468V33.5C18.001 33.776 17.777 34 17.501 34Z" fill="black"/>
<path d="M25.502 34C25.226 34 25.002 33.776 25.002 33.5V12.337C25.002 12.061 25.226 11.837 25.502 11.837C25.778 11.837 26.002 12.061 26.002 12.337V33.5C26.002 33.776 25.778 34 25.502 34Z" fill="black"/>
</svg>
