<svg width="34" height="34" viewBox="0 0 34 34" fill="none" xmlns="http://www.w3.org/2000/svg">
<path d="M22.8223 10.5944C19.8338 7.60589 15.3335 7.11092 12.122 9.19531L12.3573 7.0732L10.4891 6.74749L9.97506 11.3751C9.94104 11.6779 10.0587 11.9729 10.2671 12.1814C10.4097 12.324 10.5962 12.4269 10.8064 12.4635L15.4769 13.2778L15.6825 11.4267L12.9849 10.9568C15.495 9.15429 19.1394 9.48229 21.5369 11.8798C23.2454 13.5884 23.9756 16.0448 23.443 18.29L25.2732 18.8335C25.9576 15.9483 25.019 12.7911 22.8223 10.5944Z" fill="black" stroke="white"/>
<path d="M22.9233 22.4923C22.9666 21.9816 22.5863 21.5113 22.075 21.4384L17.5651 20.7851L17.3983 22.6354L19.8648 22.9923C17.3598 24.7514 13.7706 24.4275 11.4139 22.0708C9.72161 20.3785 9.00473 17.9377 9.5446 15.7008L7.72457 15.1689C7.03193 18.0436 7.95236 21.1803 10.1284 23.3563C13.1162 26.3441 17.6449 26.7938 20.8577 24.6394L20.6615 26.9797L22.5255 27.238L22.9233 22.4923Z" fill="black" stroke="white"/>
<path d="M28.04 6.28L5.96 27.72" stroke="black" stroke-linecap="square"/>
<path fill-rule="evenodd" clip-rule="evenodd" d="M1 16.983C1 8.17023 8.16992 1 16.983 1C25.7958 1 32.9658 8.17023 32.9658 16.983C32.9658 25.7958 25.7958 32.9658 16.983 32.9658C8.16992 32.9658 1 25.7958 1 16.983ZM1.64 16.983C1.64 25.4429 8.52287 32.3258 16.983 32.3258C25.4432 32.3258 32.3258 25.4426 32.3258 16.9827C32.3258 8.52289 25.4432 1.64001 16.983 1.64001C8.52287 1.64001 1.64 8.52319 1.64 16.983Z" fill="black"/>
<path d="M16.983 0.875C8.10088 0.875 0.875 8.10119 0.875 16.983H1.125C1.125 8.23926 8.23896 1.125 16.983 1.125V0.875ZM33.0908 16.983C33.0908 8.10119 25.8649 0.875 16.983 0.875V1.125C25.7268 1.125 32.8408 8.23926 32.8408 16.983H33.0908ZM16.983 33.0908C25.8649 33.0908 33.0908 25.8649 33.0908 16.983H32.8408C32.8408 25.7268 25.7268 32.8408 16.983 32.8408V33.0908ZM0.875 16.983C0.875 25.8649 8.10089 33.0908 16.983 33.0908V32.8408C8.23896 32.8408 1.125 25.7268 1.125 16.983H0.875ZM16.983 32.2008C8.59191 32.2008 1.765 25.3738 1.765 16.983H1.515C1.515 25.5119 8.45384 32.4508 16.983 32.4508V32.2008ZM32.2008 16.9827C32.2008 25.3735 25.3742 32.2008 16.983 32.2008V32.4508C25.5122 32.4508 32.4508 25.5116 32.4508 16.9827H32.2008ZM16.983 1.76501C25.3742 1.76501 32.2008 8.59192 32.2008 16.9827H32.4508C32.4508 8.45385 25.5122 1.51501 16.983 1.51501V1.76501ZM1.765 16.983C1.765 8.59223 8.59191 1.76501 16.983 1.76501V1.51501C8.45384 1.51501 1.515 8.45416 1.515 16.983H1.765Z" fill="black"/>
</svg>
