<svg width="40" height="31" viewBox="0 0 40 31" fill="none" xmlns="http://www.w3.org/2000/svg">
<path d="M30.193 10.7143C30.193 12.9475 28.3958 14.7521 26.1861 14.7521C23.9763 14.7521 22.1791 12.9475 22.1791 10.7143C22.1791 8.48102 23.9763 6.67645 26.1861 6.67645C28.3958 6.67645 30.193 8.48102 30.193 10.7143Z" fill="white" stroke="#080F23"/>
<path d="M38.7558 23.6176C38.7558 26.9956 36.013 29.7353 32.6279 29.7353C29.2428 29.7353 26.5 26.9956 26.5 23.6176C26.5 20.2397 29.2428 17.5 32.6279 17.5C36.013 17.5 38.7558 20.2397 38.7558 23.6176Z" fill="white" stroke="#080F23"/>
<path d="M30 23.5H34.8372" stroke="#080F23" stroke-linecap="round" stroke-linejoin="round"/>
<path d="M32.5 21V26" stroke="#080F23" stroke-linecap="round" stroke-linejoin="round"/>
<path d="M19.0581 7.05882C19.0581 10.6804 16.1175 13.6176 12.4884 13.6176C8.85926 13.6176 5.91861 10.6804 5.91861 7.05882C5.91861 3.43722 8.85926 0.5 12.4884 0.5C16.1175 0.5 19.0581 3.43722 19.0581 7.05882Z" fill="white" stroke="#080F23"/>
<path fill-rule="evenodd" clip-rule="evenodd" d="M1 23.8705V20.7844C1.41531 18.734 3.05233 17.1522 5.11579 16.8075L5.37171 16.7647H19.6309L20.0354 16.8301C22.0656 17.1581 23.6554 18.7531 23.9767 20.7844V23.8705" fill="white"/>
<path d="M1 23.8705V20.7844V20.7844C1.41531 18.734 3.05233 17.1522 5.1158 16.8075L5.37171 16.7647H19.6309L20.0354 16.8301C22.0656 17.1581 23.6554 18.7531 23.9767 20.7844V20.7844V23.8705" stroke="#080F23"/>
</svg>
