<svg width="93" height="25" viewBox="0 0 93 25" fill="none" xmlns="http://www.w3.org/2000/svg">
<path fill-rule="evenodd" clip-rule="evenodd" d="M72.3636 15.0962C73.4737 12.7348 74.3891 12.4019 75.1826 12.4019C75.6465 12.4019 75.864 12.9332 75.6487 13.3874C74.9379 14.8865 73.8378 15.2613 72.2848 15.2762C72.3116 15.2157 72.3343 15.1584 72.3636 15.0962ZM91.5753 12.9118C91.3788 12.9118 91.252 12.9857 91.252 13.0583C91.252 13.1094 91.4989 13.8381 91.0053 14.9192C90.4558 16.123 88.0817 18.6491 86.4118 18.6491C85.6827 18.6491 85.6277 17.4087 86.1915 16.1752C87.0183 14.3666 89.223 11.2353 90.6265 8.20609C91.4338 6.46355 89.1486 4.35148 88.8348 4.35148C88.7333 4.35148 88.5524 4.4392 88.4934 4.56179C88.4539 4.64425 88.9021 5.72824 88.0965 7.45653C86.2636 11.3894 85.4432 12.4462 84.299 14.9192C83.622 16.3572 81.9149 18.6644 80.6556 18.6491C80.0898 18.6423 80.0201 17.4004 80.5985 16.1627C82.0714 13.0109 83.8425 10.9515 85.6274 7.18811C86.7823 4.75346 84.0835 2.48657 83.7698 2.48657C83.6683 2.48657 83.4666 2.62232 83.4284 2.69688C83.381 2.78942 83.92 4.27758 83.0483 6.13306C81.1859 10.0973 80.207 11.8723 79.3462 13.5767V13.5765C79.3456 13.578 79.3449 13.5793 79.3443 13.5807C79.2443 13.7782 79.146 13.9754 79.0482 14.1743C77.3476 17.3896 74.9512 18.6328 73.2039 18.6328C72.2066 18.6328 71.4969 17.9594 71.8955 16.3631C72.1902 16.5359 72.7773 16.7787 73.7584 16.7787C75.0198 16.7787 76.5442 16.1567 77.452 14.2168C78.0226 12.9973 76.0871 10.8815 74.6478 10.8787C72.4594 10.8745 70.9061 12.1953 69.8679 14.4289C68.1821 18.0557 71.2897 20.2032 73.4036 20.2032C75.1045 20.2032 76.8961 18.9969 78.1674 17.6357C78.2822 19.0844 79.0633 20.2032 80.2967 20.2032C81.6677 20.2032 82.9352 19.3815 83.9945 18.2335C84.3091 19.3826 85.0552 20.2032 85.9357 20.2032C88.1917 20.2032 91.4799 18.469 92.5575 16.1627C93.3822 14.3975 92.0802 12.9118 91.5753 12.9118Z" fill="black"/>
<path fill-rule="evenodd" clip-rule="evenodd" d="M60.4657 4.05877C52.6114 4.05877 46.5913 7.51162 37.1727 7.51162C31.4499 7.51162 28.7473 5.47807 28.7473 2.71491C28.7473 1.25658 29.4299 0.520833 29.4299 0.219298C29.4299 0.116447 29.3295 0 29.2223 0C28.987 0 26.5976 1.24737 26.5976 3.91557C26.5976 7.75329 30.6287 9.62346 35.6476 9.62346C47.716 9.62346 52.6369 5.38618 59.7641 5.38618C65.0614 5.38618 69.0826 8.80658 65.9283 15.5408C65.0533 17.4086 64.1648 18.6491 63.5384 18.6489C62.9217 18.6489 61.959 17.3811 63.6417 13.7656C64.2674 12.4213 64.4195 12.2928 64.4911 12.1362C64.6064 11.8838 63.9281 11.259 62.9778 11.259C62.1378 11.259 61.5673 12.1897 61.1468 13.0956C60.6325 14.2031 60.3723 15.1693 60.2917 16.0037C59.9206 17.1307 59.2021 18.6489 58.5483 18.6489C57.9202 18.6489 57.033 16.7781 58.4245 13.8572C59.1845 12.2623 60.028 11.9311 60.1472 11.6691C60.2308 11.4855 59.8031 10.8831 58.7513 10.8831C57.8331 10.8831 56.9103 11.4851 56.0174 13.3932C54.2413 17.1897 56.5818 20.2031 58.1331 20.2031C59.2644 20.2031 60.0383 19.2785 60.5902 18.2908C61.1427 19.5987 62.2744 20.2031 63.0296 20.2031C65.3362 20.2031 67.4348 17.6531 68.7141 14.9193C71.7412 8.44956 65.9857 4.05877 60.4657 4.05877Z" fill="black"/>
<path fill-rule="evenodd" clip-rule="evenodd" d="M40.3298 18.6491C39.739 18.6491 39.7298 17.3903 40.2983 16.1478C41.0491 14.5063 42.3345 12.4329 43.5898 12.4329C43.9672 12.4329 44.3528 12.544 44.708 12.6982C43.0368 16.1392 40.9116 18.6491 40.3298 18.6491ZM52.4831 12.7254C52.5464 12.5993 52.6075 12.4745 52.6643 12.3526C53.5061 10.5425 52.4625 9.40412 51.2129 9.40412C51.1785 9.40412 51.1199 9.44798 51.1199 9.49359C51.1199 9.64907 51.0573 11.1396 50.2347 12.8993C49.3872 14.7116 47.3989 18.6517 45.6657 18.6491C45.0433 18.648 45.0127 17.389 45.8764 15.541C46.9801 13.1789 47.5517 12.6442 47.6442 12.4328C47.7619 12.164 46.494 10.8787 45.8746 10.8787C45.7692 10.8787 45.5537 11.1912 45.2788 11.6815C44.542 11.2578 43.5741 10.8787 42.4659 10.8787C40.5871 10.8787 39.5441 12.4098 38.0888 15.541C37.4675 16.8247 36.345 18.6491 35.5516 18.6491C34.7605 18.6491 34.6677 16.1745 37.1422 10.8787C39.5751 5.67232 42.522 3.45784 42.522 3.33591C42.522 3.0892 42.047 2.48657 41.0716 2.48657C39.5871 2.48657 37.0553 5.16771 34.6989 10.1017C31.359 17.0949 33.3486 20.2032 35.2744 20.2032C36.2766 20.2032 37.1481 19.3379 37.8412 18.3199C38.2113 19.4491 39.1736 20.2032 40.2643 20.2032C40.8915 20.2032 41.8756 19.3267 42.9154 18.0434C43.1381 19.4804 44.3045 20.2032 44.9424 20.2032C46.738 20.2032 49.1872 17.7754 50.9682 15.2331C51.5622 16.655 53.0849 17.771 53.0849 19.2109C53.0849 20.5451 52.2735 21.1276 51.3693 21.1276C50.5574 21.1276 49.9712 20.5337 49.9712 19.6655C49.9712 18.6423 50.6285 18.3383 50.6285 18.1557C50.6285 17.9728 50.3587 17.7719 49.8789 17.7719C49.2145 17.7719 48.4581 18.4778 48.4581 19.6839C48.4581 21.3149 49.9116 22.3789 51.3324 22.3789C53.4129 22.3789 55.124 20.8717 55.124 18.6971C55.124 16.423 52.7239 14.594 52.4831 12.7254Z" fill="black"/>
<path fill-rule="evenodd" clip-rule="evenodd" d="M29.498 12.7801C29.5805 12.6258 29.653 12.4821 29.7137 12.3525C30.6022 10.4534 29.4056 9.40405 28.2623 9.40405C28.2278 9.40405 28.1693 9.44791 28.1693 9.49375C28.1693 9.64901 28.1045 11.0841 27.2839 12.8992C26.2043 15.2876 24.2651 18.649 22.7151 18.649C22.4044 18.649 21.7838 18.0139 22.9316 15.5409C23.7285 13.8244 24.5574 12.7323 24.6934 12.4328C24.8491 12.0907 23.5508 10.8786 22.924 10.8786C22.1614 10.8786 19.7022 13.1459 18.0035 15.1676L17.9729 15.1444C18.3749 14.2082 19.142 12.6723 19.142 12.4229C19.142 11.9839 18.3576 10.8786 16.9517 10.8786C16.8412 10.8786 16.7238 11.0209 16.7238 11.0863C16.7238 11.1446 17.2658 11.7115 15.7538 14.9192C15.1664 16.1661 14.5671 17.4141 14.2778 18.0275C13.9846 18.649 15.2011 20.2032 15.7549 20.2032C15.7833 20.2032 15.8311 20.1244 15.9807 19.8078C17.3665 17.0194 21.3196 13.0486 21.7486 13.0486C21.7831 13.0486 21.8001 13.119 21.7916 13.1369C21.713 13.3049 20.9315 14.4856 20.4257 15.5409C18.9398 18.6409 21.0016 20.2032 22.1518 20.2032C23.8571 20.2032 26.2733 17.5641 27.9606 15.2043C28.5448 16.6418 30.0915 17.7637 30.0915 19.2146C30.0915 20.5486 29.2799 21.131 28.3758 21.131C27.564 21.131 26.9778 20.5372 26.9778 19.6692C26.9778 18.6457 27.6351 18.342 27.6351 18.1591C27.6351 17.9764 27.3651 17.7753 26.8854 17.7753C26.2211 17.7753 25.4647 18.4812 25.4647 19.6874C25.4647 21.3185 26.9182 22.3826 28.339 22.3826C30.4194 22.3826 32.1306 20.8753 32.1306 18.7005C32.1306 16.5196 29.7874 14.5512 29.498 12.7801Z" fill="black"/>
<path fill-rule="evenodd" clip-rule="evenodd" d="M3.98396 24.8654C7.40378 24.8654 10.8376 20.511 13.9681 13.7217C16.6809 7.83862 14.7693 4.35156 9.61788 4.35156C6.48972 4.35156 1.86613 6.28643 0.569809 9.05704C-0.470437 11.2803 1.06777 12.927 2.09187 12.927C2.17853 12.927 2.2628 12.8856 2.29598 12.8149C2.33594 12.7292 1.70065 12.0198 2.23704 10.8136C3.29126 8.44279 6.46134 5.90551 10.7607 5.90551C13.0523 5.90551 13.5171 8.45003 11.1391 13.7217C9.47161 17.4178 5.96337 23.6222 3.46307 23.6222C2.76317 23.6222 1.53168 22.404 2.88346 19.5204C3.86258 17.4318 4.98229 16.9136 5.04298 16.7842C5.0993 16.6636 4.72294 16.1625 3.77438 16.1625C2.19622 16.1625 1.33673 16.8272 0.455633 18.7101C-0.910332 21.6299 0.949231 24.8654 3.98396 24.8654Z" fill="black"/>
</svg>
